<?xml version="1.0" standalone="no"?>
<!DOCTYPE svg PUBLIC "-//W3C//DTD SVG 20010904//EN"
 "http://www.w3.org/TR/2001/REC-SVG-20010904/DTD/svg10.dtd">
<svg version="1.0" xmlns="http://www.w3.org/2000/svg"
 width="260.000000pt" height="260.000000pt" viewBox="0 0 260.000000 260.000000"
 preserveAspectRatio="xMidYMid meet">
<metadata>
Created by potrace 1.11, written by Peter Selinger 2001-2013
</metadata>
<g transform="translate(0.000000,260.000000) scale(0.100000,-0.100000)"
fill="#000000" stroke="none">
<path d="M1113 2376 c5 -117 12 -111 -147 -110 l-136 2 0 -94 0 -94 -160 0
-160 0 0 -155 c0 -117 -3 -155 -12 -156 -7 -1 -44 -3 -83 -4 -38 -1 -75 -3
-81 -3 -8 -1 -11 -44 -12 -129 0 -71 0 -134 -1 -140 -1 -9 -23 -13 -73 -12
-40 0 -81 0 -90 0 -16 -1 -18 -17 -18 -181 0 -180 0 -180 23 -181 12 0 52 0
90 -1 37 0 67 -3 68 -6 0 -4 1 -68 2 -142 l2 -135 93 0 92 0 0 -157 0 -158
160 0 160 0 0 -94 0 -94 133 0 c72 0 137 -1 142 -1 6 -1 9 -37 9 -91 l-2 -90
183 0 184 0 -2 75 c-3 116 -12 110 147 108 l136 -2 1 47 c0 26 1 68 1 95 l0
47 158 0 158 0 0 151 c0 82 3 153 6 157 4 4 46 7 94 7 l87 0 2 135 c1 74 2
139 2 143 1 5 9 7 19 6 9 -1 50 -1 90 0 l72 1 0 180 c0 180 0 180 -22 181 -13
0 -54 1 -92 2 l-69 2 1 125 c0 69 -2 132 -4 141 -4 13 -19 16 -90 15 -47 -1
-88 2 -91 7 -2 4 -5 75 -5 157 l0 150 -160 0 -159 0 1 53 c1 28 1 70 1 93 l-1
41 -140 -1 c-133 -1 -140 0 -141 19 -1 11 -1 53 -1 93 l0 72 -184 0 -184 0 3
-74z"/>
</g>
</svg>
